<?xml version="1.0" encoding="UTF-8" standalone="no"?>
<!DOCTYPE svg PUBLIC "-//W3C//DTD SVG 1.1//EN"
 "http://www.w3.org/Graphics/SVG/1.1/DTD/svg11.dtd">
<!-- Generated by graphviz version 2.42.4 (0)
 -->
<!-- Title: ER_Diagram Pages: 1 -->
<svg width="1742pt" height="704pt"
 viewBox="0.00 0.00 1741.60 703.60" xmlns="http://www.w3.org/2000/svg" xmlns:xlink="http://www.w3.org/1999/xlink">
<g id="graph0" class="graph" transform="scale(1 1) rotate(0) translate(28.8 674.8)">
<title>ER_Diagram</title>
<polygon fill="white" stroke="transparent" points="-28.8,28.8 -28.8,-674.8 1712.8,-674.8 1712.8,28.8 -28.8,28.8"/>
<g id="clust1" class="cluster">
<title>cluster_legend</title>
<polygon fill="white" stroke="#888888" points="8,-547 8,-638 475,-638 475,-547 8,-547"/>
<text text-anchor="middle" x="241.5" y="-624.4" font-family="Arial" font-size="12.00">How to read this diagram</text>
</g>
<!-- CLIENT -->
<g id="node1" class="node">
<title>CLIENT</title>
<path fill="white" stroke="#444444" stroke-width="1.5" d="M310.5,-515C310.5,-515 172.5,-515 172.5,-515 166.5,-515 160.5,-509 160.5,-503 160.5,-503 160.5,-487 160.5,-487 160.5,-481 166.5,-475 172.5,-475 172.5,-475 310.5,-475 310.5,-475 316.5,-475 322.5,-481 322.5,-487 322.5,-487 322.5,-503 322.5,-503 322.5,-509 316.5,-515 310.5,-515"/>
<text text-anchor="middle" x="241.5" y="-498.4" font-family="Arial" font-size="12.00">CLIENT</text>
<text text-anchor="middle" x="241.5" y="-485.4" font-family="Arial" font-size="12.00">Customer / person details</text>
</g>
<!-- CLIENT_ACCOUNT_RELATIONSHIP -->
<g id="node2" class="node">
<title>CLIENT_ACCOUNT_RELATIONSHIP</title>
<path fill="white" stroke="#444444" stroke-width="1.5" d="M1342,-571C1342,-571 1134,-571 1134,-571 1128,-571 1122,-565 1122,-559 1122,-559 1122,-543 1122,-543 1122,-537 1128,-531 1134,-531 1134,-531 1342,-531 1342,-531 1348,-531 1354,-537 1354,-543 1354,-543 1354,-559 1354,-559 1354,-565 1348,-571 1342,-571"/>
<text text-anchor="middle" x="1238" y="-554.4" font-family="Arial" font-size="12.00">CLIENT_ACCOUNT_RELATIONSHIP</text>
<text text-anchor="middle" x="1238" y="-541.4" font-family="Arial" font-size="12.00">Links client and account</text>
</g>
<!-- CLIENT&#45;&gt;CLIENT_ACCOUNT_RELATIONSHIP -->
<g id="edge1" class="edge">
<title>CLIENT&#45;&gt;CLIENT_ACCOUNT_RELATIONSHIP</title>
<path fill="none" stroke="#555555" stroke-width="1.4" d="M322.8,-505C542.38,-505 1131,-505 1131,-505 1131,-505 1131,-523.96 1131,-523.96"/>
<polygon fill="#555555" stroke="#555555" stroke-width="1.4" points="1128.55,-523.96 1131,-530.96 1133.45,-523.96 1128.55,-523.96"/>
<text text-anchor="middle" x="765" y="-591" font-family="Arial" font-size="10.00">has</text>
<text text-anchor="middle" x="765" y="-580" font-family="Arial" font-size="10.00">(1 → many)</text>
</g>
<!-- PRODUCT -->
<g id="node4" class="node">
<title>PRODUCT</title>
<path fill="white" stroke="#444444" stroke-width="1.5" d="M685,-426C685,-426 609,-426 609,-426 603,-426 597,-420 597,-414 597,-414 597,-398 597,-398 597,-392 603,-386 609,-386 609,-386 685,-386 685,-386 691,-386 697,-392 697,-398 697,-398 697,-414 697,-414 697,-420 691,-426 685,-426"/>
<text text-anchor="middle" x="647" y="-409.4" font-family="Arial" font-size="12.00">PRODUCT</text>
<text text-anchor="middle" x="647" y="-396.4" font-family="Arial" font-size="12.00">Product / plan</text>
</g>
<!-- CLIENT&#45;&gt;PRODUCT -->
<g id="edge13" class="edge">
<title>CLIENT&#45;&gt;PRODUCT</title>
<path fill="none" stroke="#555555" stroke-width="1.4" d="M322.58,-485C440.92,-485 647,-485 647,-485 647,-485 647,-433.34 647,-433.34"/>
<polygon fill="#555555" stroke="#555555" stroke-width="1.4" points="649.45,-433.34 647,-426.34 644.55,-433.34 649.45,-433.34"/>
<text text-anchor="middle" x="532" y="-441" font-family="Arial" font-size="10.00">product contact</text>
<text text-anchor="middle" x="532" y="-430" font-family="Arial" font-size="10.00">(1 → many)</text>
</g>
<!-- BENEFICIARY -->
<g id="node10" class="node">
<title>BENEFICIARY</title>
<path fill="white" stroke="#444444" stroke-width="1.5" d="M1288.5,-465C1288.5,-465 1187.5,-465 1187.5,-465 1181.5,-465 1175.5,-459 1175.5,-453 1175.5,-453 1175.5,-437 1175.5,-437 1175.5,-431 1181.5,-425 1187.5,-425 1187.5,-425 1288.5,-425 1288.5,-425 1294.5,-425 1300.5,-431 1300.5,-437 1300.5,-437 1300.5,-453 1300.5,-453 1300.5,-459 1294.5,-465 1288.5,-465"/>
<text text-anchor="middle" x="1238" y="-448.4" font-family="Arial" font-size="12.00">BENEFICIARY</text>
<text text-anchor="middle" x="1238" y="-435.4" font-family="Arial" font-size="12.00">Beneficiary details</text>
</g>
<!-- CLIENT&#45;&gt;BENEFICIARY -->
<g id="edge12" class="edge">
<title>CLIENT&#45;&gt;BENEFICIARY</title>
<path fill="none" stroke="#555555" stroke-width="1.4" d="M322.63,-495C560.24,-495 1238,-495 1238,-495 1238,-495 1238,-472.05 1238,-472.05"/>
<polygon fill="#555555" stroke="#555555" stroke-width="1.4" points="1240.45,-472.05 1238,-465.05 1235.55,-472.05 1240.45,-472.05"/>
<text text-anchor="middle" x="765" y="-509" font-family="Arial" font-size="10.00">beneficiary client</text>
<text text-anchor="middle" x="765" y="-498" font-family="Arial" font-size="10.00">(1 → many)</text>
</g>
<!-- ACCOUNT -->
<g id="node3" class="node">
<title>ACCOUNT</title>
<path fill="white" stroke="#444444" stroke-width="1.5" d="M963.5,-400C963.5,-400 864.5,-400 864.5,-400 858.5,-400 852.5,-394 852.5,-388 852.5,-388 852.5,-372 852.5,-372 852.5,-366 858.5,-360 864.5,-360 864.5,-360 963.5,-360 963.5,-360 969.5,-360 975.5,-366 975.5,-372 975.5,-372 975.5,-388 975.5,-388 975.5,-394 969.5,-400 963.5,-400"/>
<text text-anchor="middle" x="914" y="-383.4" font-family="Arial" font-size="12.00">ACCOUNT</text>
<text text-anchor="middle" x="914" y="-370.4" font-family="Arial" font-size="12.00">Customer account</text>
</g>
<!-- ACCOUNT&#45;&gt;CLIENT_ACCOUNT_RELATIONSHIP -->
<g id="edge2" class="edge">
<title>ACCOUNT&#45;&gt;CLIENT_ACCOUNT_RELATIONSHIP</title>
<path fill="none" stroke="#555555" stroke-width="1.4" d="M975.78,-390C1042.39,-390 1139,-390 1139,-390 1139,-390 1139,-523.93 1139,-523.93"/>
<polygon fill="#555555" stroke="#555555" stroke-width="1.4" points="1136.55,-523.93 1139,-530.93 1141.45,-523.93 1136.55,-523.93"/>
<text text-anchor="middle" x="1058.5" y="-461" font-family="Arial" font-size="10.00">linked via</text>
<text text-anchor="middle" x="1058.5" y="-450" font-family="Arial" font-size="10.00">(1 → many)</text>
</g>
<!-- ACCOUNT_TRANSACTION -->
<g id="node5" class="node">
<title>ACCOUNT_TRANSACTION</title>
<path fill="white" stroke="#444444" stroke-width="1.5" d="M1317,-120C1317,-120 1159,-120 1159,-120 1153,-120 1147,-114 1147,-108 1147,-108 1147,-92 1147,-92 1147,-86 1153,-80 1159,-80 1159,-80 1317,-80 1317,-80 1323,-80 1329,-86 1329,-92 1329,-92 1329,-108 1329,-108 1329,-114 1323,-120 1317,-120"/>
<text text-anchor="middle" x="1238" y="-103.4" font-family="Arial" font-size="12.00">ACCOUNT_TRANSACTION</text>
<text text-anchor="middle" x="1238" y="-90.4" font-family="Arial" font-size="12.00">Account&#45;level transaction</text>
</g>
<!-- ACCOUNT&#45;&gt;ACCOUNT_TRANSACTION -->
<g id="edge4" class="edge">
<title>ACCOUNT&#45;&gt;ACCOUNT_TRANSACTION</title>
<path fill="none" stroke="#555555" stroke-width="1.4" d="M975.62,-370C1049.07,-370 1162,-370 1162,-370 1162,-370 1162,-127.29 1162,-127.29"/>
<polygon fill="#555555" stroke="#555555" stroke-width="1.4" points="1164.45,-127.29 1162,-120.29 1159.55,-127.29 1164.45,-127.29"/>
<text text-anchor="middle" x="1058.5" y="-280" font-family="Arial" font-size="10.00">has</text>
<text text-anchor="middle" x="1058.5" y="-269" font-family="Arial" font-size="10.00">(1 → many)</text>
</g>
<!-- ROLLOVER -->
<g id="node8" class="node">
<title>ROLLOVER</title>
<path fill="white" stroke="#444444" stroke-width="1.5" d="M1632,-220C1632,-220 1523,-220 1523,-220 1517,-220 1511,-214 1511,-208 1511,-208 1511,-192 1511,-192 1511,-186 1517,-180 1523,-180 1523,-180 1632,-180 1632,-180 1638,-180 1644,-186 1644,-192 1644,-192 1644,-208 1644,-208 1644,-214 1638,-220 1632,-220"/>
<text text-anchor="middle" x="1577.5" y="-203.4" font-family="Arial" font-size="12.00">ROLLOVER</text>
<text text-anchor="middle" x="1577.5" y="-190.4" font-family="Arial" font-size="12.00">Rollover transaction</text>
</g>
<!-- ACCOUNT&#45;&gt;ROLLOVER -->
<g id="edge7" class="edge">
<title>ACCOUNT&#45;&gt;ROLLOVER</title>
<path fill="none" stroke="#555555" stroke-width="1.4" d="M914,-359.83C914,-314.8 914,-210 914,-210 914,-210 1503.84,-210 1503.84,-210"/>
<polygon fill="#555555" stroke="#555555" stroke-width="1.4" points="1503.84,-212.45 1510.84,-210 1503.84,-207.55 1503.84,-212.45"/>
<text text-anchor="middle" x="1238" y="-328" font-family="Arial" font-size="10.00">has</text>
<text text-anchor="middle" x="1238" y="-317" font-family="Arial" font-size="10.00">(1 → many)</text>
</g>
<!-- ACCOUNT&#45;&gt;BENEFICIARY -->
<g id="edge11" class="edge">
<title>ACCOUNT&#45;&gt;BENEFICIARY</title>
<path fill="none" stroke="#555555" stroke-width="1.4" d="M975.7,-380C1069.71,-380 1238,-380 1238,-380 1238,-380 1238,-417.79 1238,-417.79"/>
<polygon fill="#555555" stroke="#555555" stroke-width="1.4" points="1235.55,-417.79 1238,-424.79 1240.45,-417.79 1235.55,-417.79"/>
<text text-anchor="middle" x="1058.5" y="-394" font-family="Arial" font-size="10.00">has</text>
<text text-anchor="middle" x="1058.5" y="-383" font-family="Arial" font-size="10.00">(1 → many)</text>
</g>
<!-- PRODUCT&#45;&gt;ACCOUNT -->
<g id="edge3" class="edge">
<title>PRODUCT&#45;&gt;ACCOUNT</title>
<path fill="none" stroke="#555555" stroke-width="1.4" d="M697.22,-393C697.22,-393 845.27,-393 845.27,-393"/>
<polygon fill="#555555" stroke="#555555" stroke-width="1.4" points="845.27,-395.45 852.27,-393 845.27,-390.55 845.27,-395.45"/>
<text text-anchor="middle" x="765" y="-411" font-family="Arial" font-size="10.00">product_id</text>
<text text-anchor="middle" x="765" y="-400" font-family="Arial" font-size="10.00">(1 → many)</text>
</g>
<!-- CONTRIBUTION_TRANSACTION -->
<g id="node7" class="node">
<title>CONTRIBUTION_TRANSACTION</title>
<path fill="white" stroke="#444444" stroke-width="1.5" d="M1672,-105C1672,-105 1483,-105 1483,-105 1477,-105 1471,-99 1471,-93 1471,-93 1471,-77 1471,-77 1471,-71 1477,-65 1483,-65 1483,-65 1672,-65 1672,-65 1678,-65 1684,-71 1684,-77 1684,-77 1684,-93 1684,-93 1684,-99 1678,-105 1672,-105"/>
<text text-anchor="middle" x="1577.5" y="-88.4" font-family="Arial" font-size="12.00">CONTRIBUTION_TRANSACTION</text>
<text text-anchor="middle" x="1577.5" y="-75.4" font-family="Arial" font-size="12.00">Contribution details</text>
</g>
<!-- ACCOUNT_TRANSACTION&#45;&gt;CONTRIBUTION_TRANSACTION -->
<g id="edge6" class="edge">
<title>ACCOUNT_TRANSACTION&#45;&gt;CONTRIBUTION_TRANSACTION</title>
<path fill="none" stroke="#555555" stroke-width="1.4" d="M1329.43,-92.5C1329.43,-92.5 1463.86,-92.5 1463.86,-92.5"/>
<polygon fill="#555555" stroke="#555555" stroke-width="1.4" points="1463.86,-94.95 1470.86,-92.5 1463.86,-90.05 1463.86,-94.95"/>
<text text-anchor="middle" x="1412.5" y="-99" font-family="Arial" font-size="10.00">details</text>
<text text-anchor="middle" x="1412.5" y="-88" font-family="Arial" font-size="10.00">(1 → many)</text>
</g>
<!-- ACCOUNT_TRANSACTION&#45;&gt;ROLLOVER -->
<g id="edge8" class="edge">
<title>ACCOUNT_TRANSACTION&#45;&gt;ROLLOVER</title>
<path fill="none" stroke="#555555" stroke-width="1.4" d="M1315,-120.42C1315,-146.98 1315,-190 1315,-190 1315,-190 1503.92,-190 1503.92,-190"/>
<polygon fill="#555555" stroke="#555555" stroke-width="1.4" points="1503.92,-192.45 1510.92,-190 1503.92,-187.55 1503.92,-192.45"/>
<text text-anchor="middle" x="1412.5" y="-166" font-family="Arial" font-size="10.00">created from</text>
<text text-anchor="middle" x="1412.5" y="-155" font-family="Arial" font-size="10.00">(1 → many)</text>
</g>
<!-- TRANSACTION_EVENT -->
<g id="node6" class="node">
<title>TRANSACTION_EVENT</title>
<path fill="white" stroke="#444444" stroke-width="1.5" d="M983,-120C983,-120 845,-120 845,-120 839,-120 833,-114 833,-108 833,-108 833,-92 833,-92 833,-86 839,-80 845,-80 845,-80 983,-80 983,-80 989,-80 995,-86 995,-92 995,-92 995,-108 995,-108 995,-114 989,-120 983,-120"/>
<text text-anchor="middle" x="914" y="-103.4" font-family="Arial" font-size="12.00">TRANSACTION_EVENT</text>
<text text-anchor="middle" x="914" y="-90.4" font-family="Arial" font-size="12.00">Transaction event / batch</text>
</g>
<!-- TRANSACTION_EVENT&#45;&gt;ACCOUNT_TRANSACTION -->
<g id="edge5" class="edge">
<title>TRANSACTION_EVENT&#45;&gt;ACCOUNT_TRANSACTION</title>
<path fill="none" stroke="#555555" stroke-width="1.4" d="M995.34,-100C995.34,-100 1139.9,-100 1139.9,-100"/>
<polygon fill="#555555" stroke="#555555" stroke-width="1.4" points="1139.9,-102.45 1146.9,-100 1139.9,-97.55 1139.9,-102.45"/>
<text text-anchor="middle" x="1058.5" y="-114" font-family="Arial" font-size="10.00">groups</text>
<text text-anchor="middle" x="1058.5" y="-103" font-family="Arial" font-size="10.00">(1 → many)</text>
</g>
<!-- TRANSACTION_EVENT&#45;&gt;ROLLOVER -->
<g id="edge9" class="edge">
<title>TRANSACTION_EVENT&#45;&gt;ROLLOVER</title>
<path fill="none" stroke="#555555" stroke-width="1.4" d="M986,-120.24C986,-149.46 986,-200 986,-200 986,-200 1503.8,-200 1503.8,-200"/>
<polygon fill="#555555" stroke="#555555" stroke-width="1.4" points="1503.8,-202.45 1510.8,-200 1503.8,-197.55 1503.8,-202.45"/>
<text text-anchor="middle" x="1238" y="-214" font-family="Arial" font-size="10.00">triggered by</text>
<text text-anchor="middle" x="1238" y="-203" font-family="Arial" font-size="10.00">(1 → many)</text>
</g>
<!-- PAYMENT -->
<g id="node9" class="node">
<title>PAYMENT</title>
<path fill="white" stroke="#444444" stroke-width="1.5" d="M1281.5,-40C1281.5,-40 1194.5,-40 1194.5,-40 1188.5,-40 1182.5,-34 1182.5,-28 1182.5,-28 1182.5,-12 1182.5,-12 1182.5,-6 1188.5,0 1194.5,0 1194.5,0 1281.5,0 1281.5,0 1287.5,0 1293.5,-6 1293.5,-12 1293.5,-12 1293.5,-28 1293.5,-28 1293.5,-34 1287.5,-40 1281.5,-40"/>
<text text-anchor="middle" x="1238" y="-23.4" font-family="Arial" font-size="12.00">PAYMENT</text>
<text text-anchor="middle" x="1238" y="-10.4" font-family="Arial" font-size="12.00">Payment record</text>
</g>
<!-- TRANSACTION_EVENT&#45;&gt;PAYMENT -->
<g id="edge10" class="edge">
<title>TRANSACTION_EVENT&#45;&gt;PAYMENT</title>
<path fill="none" stroke="#555555" stroke-width="1.4" d="M914,-79.81C914,-56.11 914,-20 914,-20 914,-20 1175.3,-20 1175.3,-20"/>
<polygon fill="#555555" stroke="#555555" stroke-width="1.4" points="1175.3,-22.45 1182.3,-20 1175.3,-17.55 1175.3,-22.45"/>
<text text-anchor="middle" x="1058.5" y="-34" font-family="Arial" font-size="10.00">payment event</text>
<text text-anchor="middle" x="1058.5" y="-23" font-family="Arial" font-size="10.00">(1 → many)</text>
</g>
<!-- LEGEND -->
<g id="node11" class="node">
<title>LEGEND</title>
<polygon fill="white" stroke="#444444" stroke-width="1.5" points="461,-608.5 16,-608.5 16,-555.5 467,-555.5 467,-602.5 461,-608.5"/>
<polyline fill="none" stroke="#444444" stroke-width="1.5" points="461,-608.5 461,-602.5 "/>
<polyline fill="none" stroke="#444444" stroke-width="1.5" points="467,-602.5 461,-602.5 "/>
<text text-anchor="middle" x="241.5" y="-591.9" font-family="Arial" font-size="12.00">1 → many means:</text>
<text text-anchor="middle" x="241.5" y="-578.9" font-family="Arial" font-size="12.00">one record on the left can connect to many records on the right.</text>
<text text-anchor="middle" x="241.5" y="-565.9" font-family="Arial" font-size="12.00">Example: one ACCOUNT can have many ACCOUNT_TRANSACTION records.</text>
</g>
</g>
</svg>
